<?xml version="1.0" standalone="no"?>
<svg xmlns="http://www.w3.org/2000/svg" viewBox="0 0 56 66" width="56" height="66"><g fill="#00336a" color="#00336a" transform="translate(9.615 0) scale(0.8333334) "><svg width="44.0" height="48.0" x="0.0" y="0.0" viewBox="0 0 44 48"><path fill="currentColor" fill-rule="evenodd" d="M26.592 7.876c-1.442 3.958-2.352 9.744-2.352 16.195 0 6.393.894 12.136 2.311 16.09-.691.939-1.454 1.46-2.256 1.46-3.13-.003-5.665-7.895-5.665-17.634 0-9.734 2.535-17.63 5.661-17.63.82.001 1.599.546 2.3 1.52M37.084 24.07c.003 6.693-1.663 12.123-3.716 12.123s-3.717-5.43-3.717-12.121c0-6.696 1.664-12.124 3.717-12.127 2.056.003 3.719 5.43 3.716 12.125M21.51 0c2.12.002 4.037 2.67 5.43 6.98 1.172-2.82 2.642-4.504 4.238-4.504 3.83-.005 6.936 9.668 6.934 21.594.002 11.926-3.106 21.597-6.937 21.596-1.607 0-3.089-1.711-4.265-4.573-1.389 4.256-3.296 6.882-5.397 6.884-4.257-.002-7.708-10.74-7.708-23.99C13.805 10.745 17.257 0 21.51 0zm-6.145 2.36c-5.194 4.504-8.651 12.467-8.651 21.535 0 9.067 3.455 17.03 8.655 21.531C6.292 41.661-.003 33.435 0 23.894 0 14.356 6.292 6.129 15.365 2.361zm26.647 14.91c1.098 0 1.986 2.9 1.988 6.483-.002 3.577-.891 6.48-1.99 6.48-1.096 0-1.985-2.9-1.987-6.482-.002-3.58.891-6.482 1.99-6.482z"></path></svg></g><path fill="#212529" fill-rule="nonzero" d="M12.89 8.62L12.89 8.62L12.91 10.46Q12.82 12.22 12.48 13.42Q12.14 14.62 11.16 15.60L11.16 15.60Q9.53 17.23 6.41 17.23L6.41 17.23Q2.74 17.23 1.37 16.26Q0 15.29 0 12.74L0 12.74L0 0.14L6.65 0.14Q9.53 0.14 11.16 1.78L11.16 1.78Q12.48 3.10 12.72 4.99L12.72 4.99Q12.89 6.34 12.89 8.62ZM8.83 13.20Q9.29 12.65 9.42 11.68Q9.55 10.70 9.55 8.64Q9.55 6.58 9.42 5.65Q9.29 4.73 8.83 4.18L8.83 4.18Q7.97 3.12 6.34 3.12L6.34 3.12L3.34 3.12L3.34 12.58Q3.34 13.54 3.98 13.90Q4.63 14.26 6.30 14.26Q7.97 14.26 8.83 13.20L8.83 13.20ZM27.07 0.14L27.07 3.12L21.05 3.12Q19.99 3.12 19.57 3.53Q19.15 3.94 19.15 4.94L19.15 4.94L19.15 7.32L25.42 7.32L25.18 10.30L19.15 10.30L19.15 17.23L15.82 17.23L15.82 3.62Q15.82 1.73 16.64 0.94Q17.47 0.14 19.49 0.14L19.49 0.14L27.07 0.14ZM41.50 12.19L41.50 12.19Q41.50 14.62 39.72 16.00Q37.94 17.38 35.18 17.38L35.18 17.38Q33 17.38 30.96 16.18L30.96 16.18Q29.95 15.55 29.30 14.41Q28.66 13.27 28.66 11.81L28.66 11.81L31.68 11.66Q31.68 12.96 32.78 13.68Q33.89 14.40 35.23 14.40L35.23 14.40Q38.23 14.40 38.23 12.29L38.23 12.29Q38.23 10.56 36.19 10.25L36.19 10.25L33.41 9.96Q31.32 9.65 30.10 8.47Q28.87 7.30 28.87 5.09Q28.87 2.88 30.62 1.44Q32.38 0 35.05 0Q37.73 0 39.36 1.36Q40.99 2.71 40.99 4.85L40.99 4.85L38.02 4.99Q37.61 2.90 35.21 2.90L35.21 2.90Q33.74 2.90 32.92 3.53Q32.09 4.15 32.09 5.00Q32.09 5.86 32.69 6.35Q33.29 6.84 34.18 6.96L34.18 6.96L36.91 7.25Q41.50 7.87 41.50 12.19ZM52.80 10.61L52.80 10.61L55.90 10.61Q55.90 13.87 54.26 15.62Q52.63 17.38 49.66 17.38L49.66 17.38Q43.10 17.38 43.10 9.67L43.10 9.67L43.10 8.23Q43.10 2.16 46.46 0.62L46.46 0.62Q47.78 0 49.66 0L49.66 0Q52.39 0 54.11 1.50Q55.82 3.00 55.82 5.83L55.82 5.83L52.70 5.83Q52.44 4.42 51.77 3.70Q51.10 2.98 49.66 2.98L49.66 2.98Q47.98 2.98 47.16 4.03L47.16 4.03Q46.58 4.78 46.49 6.58L46.49 6.58Q46.44 7.15 46.44 8.14L46.44 8.14L46.44 9.62Q46.44 12.38 47.21 13.39L47.21 13.39Q48.00 14.40 49.67 14.40Q51.34 14.40 51.97 13.48Q52.61 12.55 52.80 10.61Z" transform="translate(0, 48)"></path></svg>